<?xml version="1.0" encoding="utf-8"?>
<!-- Generator: Adobe Illustrator 19.0.0, SVG Export Plug-In . SVG Version: 6.00 Build 0)  -->
<svg version="1.1" id="Layer_2" xmlns="http://www.w3.org/2000/svg" xmlns:xlink="http://www.w3.org/1999/xlink" x="0px" y="0px"
	 viewBox="0 0 487.5 438" style="enable-background:new 0 0 487.5 438;" xml:space="preserve">
<style type="text/css">
	.st0{fill:#FFFFFF;}
	.st1{fill:#6D6E71;}
</style>
<g>
	<path class="st0" d="M81.6,229.3c-3.9-0.3-8.2-0.7-14.7-0.9l-31.1-1c-12.3-0.4-19.7-3-24.2-8.3c-4.7-5.3-6-12.8-5.8-19.4
		c0.2-6.3,2-13.3,5-17.5l7.3,2.6c-2.3,3.4-4.5,8.8-4.7,15.4c-0.3,9.8,4.7,17.2,18.1,17.6l6,0.2l0-0.2c-4.9-3.1-8.7-8.9-8.4-17.1
		c0.4-13.1,12-22.2,26.8-21.7c18.1,0.6,28,12.6,27.7,24.7c-0.3,9.2-5.3,14.1-9.8,16.2l0,0.2l8.1,0.7L81.6,229.3z M60.8,218.7
		c1.7,0.1,3.1,0,4.4-0.4c5.7-1.6,10.5-6.1,10.7-13.1c0.3-9.2-7.4-16-19.7-16.4c-10.5-0.3-19.4,4.6-19.7,15
		c-0.2,5.9,3.4,11.4,9.5,13.7c1.6,0.6,3.5,0.9,5.2,0.9L60.8,218.7z"/>
	<path class="st0" d="M66.2,247.3c5.6-1.5,10.4-2.8,14.8-4.3l2,7.5l-9.3,2.8l0.1,0.4c7,0.5,12.4,4.6,13.9,10.3
		c0.3,1,0.3,1.7,0.3,2.5l-8.2,2.2c0-0.9-0.2-1.8-0.5-3c-1.6-6-7.3-9.1-14.2-8.6c-1.2,0.1-2.7,0.3-4.1,0.7l-25.4,6.7l-2.2-8.5
		L66.2,247.3z"/>
	<path class="st0" d="M60.1,322.2l5.1-3.6l-0.1-0.3c-4.7-0.5-10.3-3.4-13.7-9.5c-4.8-8.6-1.1-16.5,5.2-19.9
		c10.4-5.8,21.2,0.2,30.3,16.8l0.9-0.5c3.6-2,9.4-6.5,4.6-15.2c-2.2-4-5.7-7.4-9.4-9.3l4.2-4.6c4.3,2.2,8.6,6.5,11.6,11.9
		c7.2,13.1,0,21.2-8.7,26l-16.1,9c-3.7,2.1-7.3,4.3-10,6.4L60.1,322.2z M81.5,308.8c-4.5-8.6-11.4-17.3-19.7-12.7
		c-5.1,2.8-5.6,7.5-3.4,11.5c3.1,5.6,8.6,7.1,12.9,6.3c0.9-0.2,1.9-0.5,2.7-0.9L81.5,308.8z"/>
	<path class="st0" d="M81.5,352.2c2.4-2.3,5.9-5.9,8.9-9.1l40.3-44l6.5,5.9l-20.9,22.9l0.1,0.1c6-2,12.6-0.8,18.4,4.5
		c8.9,8.2,8.4,21.5-1.8,32.5c-11.9,13-25.9,12.1-34,4.7c-5.2-4.8-7.5-10.6-5.8-17.9l-0.2-0.2l-5.8,5.7L81.5,352.2z M101.6,343.8
		c-0.8,0.8-1.4,1.8-1.9,2.7c-2.9,5.7-2,12.4,2.7,16.7c6.8,6.3,16.1,4.4,23.7-4c6.7-7.3,8.7-16.9,1.7-23.3c-4.5-4.1-11.5-4.8-17.4-1
		c-0.8,0.6-1.9,1.3-2.9,2.4L101.6,343.8z"/>
	<path class="st0" d="M162.8,408.5l2-5.9l-0.3-0.1c-4.1,2.4-10.3,3.3-16.6,0.4c-9-4.2-10.6-12.7-7.6-19.1c5-10.8,17.3-12.3,34.3-4.3
		l0.4-0.9c1.7-3.7,3.8-10.8-5.3-15c-4.1-1.9-9-2.6-13.1-2l0.7-6.2c4.8-0.7,10.8,0.2,16.4,2.8c13.5,6.3,12.5,17.2,8.3,26.1l-7.8,16.7
		c-1.8,3.9-3.4,7.8-4.2,11.1L162.8,408.5z M172.2,385.1c-8.7-4.3-19.4-7.3-23.4,1.4c-2.4,5.3-0.1,9.4,4,11.3
		c5.8,2.7,11.1,0.7,14.2-2.5c0.7-0.7,1.3-1.5,1.7-2.4L172.2,385.1z"/>
	<path class="st0" d="M216.9,358.5l-2.9,13.9l12.4,2.6l-1.4,6.7l-12.4-2.6l-5.4,26.1c-1.3,6-0.3,9.7,4.6,10.7c2.3,0.5,4,0.5,5.2,0.5
		l-1,6.7c-1.8,0.3-4.6,0.3-8-0.4c-4-0.8-7-2.8-8.6-5.7c-1.9-3.1-1.9-7.6-0.7-13.3l5.5-26.3l-7.4-1.5l1.4-6.7l7.4,1.5l2.4-11.6
		L216.9,358.5z"/>
	<path class="st0" d="M278.4,410.8c0.2,5.1,0.5,9.6,0.9,13.4l-7.9,0.3l-0.8-8l-0.2,0c-2.2,4.1-7.1,9.5-15.8,9.8
		c-7.7,0.3-17-3.6-17.7-20.9l-1.2-28.8l8.9-0.4l1.1,27.3c0.4,9.4,3.5,15.6,11.5,15.3c5.9-0.2,9.9-4.6,11.4-8.6
		c0.5-1.3,0.7-3,0.6-4.6l-1.2-30.3l8.9-0.4L278.4,410.8z"/>
	<path class="st0" d="M304.2,395.2c4.1,11.4,12.9,13.7,21.3,10.9c6-2,9.3-4.3,12-6.7l3.5,5.6c-2.5,2.4-7,5.6-14.4,8.1
		c-14.2,4.8-25.9-1.8-30.7-15.9c-4.8-14.1-0.3-28,13.2-32.5c15.1-5.1,23.6,7,26.5,15.6c0.6,1.7,0.9,3.2,1,4.1L304.2,395.2z
		 M326.8,380.8c-1.7-5.4-6.9-13.1-16.3-9.9c-8.5,2.9-9.6,12.1-8.2,18.2L326.8,380.8z"/>
	<path class="st0" d="M358.6,388c3.1,0,8-0.9,11.8-3.3c5.4-3.5,6.2-7.9,4-11.3c-2.3-3.6-5.7-4.2-12.5-2.7
		c-9.1,2.1-15.2,0.2-18.4-4.7c-4.3-6.7-2.5-15.6,6.3-21.3c4.2-2.7,8.6-3.8,11.7-3.9l1.7,6.7c-2.3,0-6.1,0.6-9.9,3
		c-4.4,2.8-5.2,7-3.2,10.1c2.2,3.4,5.7,3.4,12.3,2c8.9-1.9,14.9-0.6,18.8,5.6c4.7,7.3,2.4,16-7.3,22.3c-4.5,2.9-9.4,4.5-13.3,4.6
		L358.6,388z"/>
	<path class="st0" d="M367.8,312.9l9.9,10.1l9.1-8.9l4.8,4.9l-9.1,8.9l18.7,19c4.3,4.4,8,5.6,11.5,2.2c1.7-1.6,2.7-3.1,3.2-4l5,4.5
		c-0.7,1.7-2.3,4-4.7,6.4c-2.9,2.9-6.2,4.3-9.5,4c-3.7-0.1-7.4-2.6-11.5-6.7L376.4,334l-5.4,5.3l-4.8-4.9l5.4-5.3l-8.3-8.4
		L367.8,312.9z"/>
	<path class="st0" d="M417.8,317c10.4,6.3,18.7,2.4,23.4-5.1c3.4-5.4,4.4-9.2,5-12.8l6.3,2.1c-0.4,3.4-1.9,8.8-6,15.4
		c-8,12.7-21.2,15.1-33.8,7.2c-12.6-7.9-18-21.5-10.4-33.5c8.4-13.5,22.7-9.6,30.4-4.8c1.6,1,2.7,1.9,3.4,2.5L417.8,317z
		 M426.2,291.5c-4.8-3.1-13.6-5.8-18.9,2.7c-4.8,7.6,0.3,15.4,5.2,19.3L426.2,291.5z"/>
	<path class="st0" d="M406.9,248.7l13.5,4.4l3.9-12.1l6.5,2.1l-3.9,12.1l25.3,8.2c5.8,1.9,9.6,1.3,11.2-3.4c0.7-2.2,0.9-3.9,1-5.1
		l6.5,1.7c0.2,1.9-0.2,4.6-1.3,7.9c-1.3,3.9-3.6,6.7-6.5,8c-3.3,1.6-7.8,1.1-13.3-0.7l-25.6-8.3l-2.3,7.2l-6.5-2.1l2.3-7.2
		l-11.3-3.6L406.9,248.7z"/>
	<path class="st0" d="M454.2,189.4c18.2,1.7,24.9,14.9,23.8,26.7c-1.3,13.2-12,22.4-27.5,20.9c-16.4-1.6-25.1-13.1-23.8-26.6
		C428,196.4,439.2,187.9,454.2,189.4z M451,228c10.8,1,19.5-4.3,20.3-13c0.8-8.4-6.6-15.5-17.7-16.6c-8.3-0.8-19.3,2.3-20.3,12.8
		C432.4,221.6,441.7,227.1,451,228z"/>
</g>
<path class="st0" d="M250.7,10.6C159.2,10.6,85,86.5,85,180.3C85,274,159.2,350,250.7,350c91.5,0,165.7-76,165.7-169.7
	C416.4,86.5,342.2,10.6,250.7,10.6z M270.3,86.9c1,5.9,1.8,15,1.4,28.5c-0.8,30.3-18.5,42.4-21,44c-2.6-1.6-20.2-13.8-21-44
	c-0.4-14.1,0.5-23.4,1.6-29.4c5.7-2.3,11.9-3.6,18.5-3.6C257,82.4,264,84,270.3,86.9z M224.2,139c7.1,20.1,20.6,32.5,21.4,38.9
	c0.5,3.8-1.4,6.3-3.1,7.8c-24.6-3.6-43.5-25.2-43.5-51.4c0-17.3,8.3-32.6,21-42C218.6,120.5,221.9,132.6,224.2,139z M258.6,185.5
	c-1.5-1.5-3.2-4-2.8-7.5c0.8-6.4,14.2-18.8,21.4-38.9c2.2-6.3,5.5-18.1,4.3-45.1c11.6,9.5,19,24.1,19,40.5
	C300.4,159.9,282.3,181.2,258.6,185.5z M250.7,330.1c-80.8,0-146.2-67.1-146.2-149.8c0-78.4,58.7-142.7,133.6-149.2v39.8
	c-29.3,5.6-51.4,31.9-51.4,63.5c0,35.7,28.2,64.6,63.1,64.6c34.8,0,63.1-28.9,63.1-64.6c0-31-21.4-57-49.8-63.2V31
	c75,6.4,134,70.8,134,149.3C396.9,263,331.5,330.1,250.7,330.1z"/>
<g>
	<path class="st1" d="M-777,121.4c-3.9-0.3-8.2-0.7-14.7-0.9l-31.1-1c-12.3-0.4-19.7-3-24.2-8.3c-4.7-5.3-6-12.8-5.8-19.4
		c0.2-6.3,2-13.3,5-17.5l7.3,2.6c-2.3,3.4-4.5,8.8-4.7,15.4c-0.3,9.8,4.7,17.2,18.1,17.6l6,0.2l0-0.2c-4.9-3.1-8.7-8.9-8.4-17.1
		c0.4-13.1,12-22.2,26.8-21.7c18.1,0.6,28,12.6,27.7,24.7c-0.3,9.2-5.3,14.1-9.8,16.2l0,0.2l8.1,0.7L-777,121.4z M-797.8,110.8
		c1.7,0.1,3.1,0,4.4-0.4c5.7-1.6,10.5-6.1,10.7-13.1c0.3-9.2-7.4-16-19.7-16.4c-10.5-0.3-19.4,4.6-19.7,15
		c-0.2,5.9,3.4,11.4,9.5,13.7c1.6,0.6,3.5,0.9,5.2,0.9L-797.8,110.8z"/>
	<path class="st1" d="M-792.4,139.4c5.6-1.5,10.4-2.8,14.8-4.3l2,7.5l-9.3,2.8l0.1,0.4c7,0.5,12.4,4.6,13.9,10.3
		c0.3,1,0.3,1.7,0.3,2.5l-8.2,2.2c0-0.9-0.2-1.8-0.5-3c-1.6-6-7.3-9.1-14.2-8.6c-1.2,0.1-2.7,0.3-4.1,0.7l-25.4,6.7l-2.2-8.5
		L-792.4,139.4z"/>
	<path class="st1" d="M-798.6,214.3l5.1-3.6l-0.1-0.3c-4.7-0.5-10.3-3.4-13.7-9.5c-4.8-8.6-1.1-16.5,5.2-19.9
		c10.4-5.8,21.2,0.2,30.3,16.8l0.9-0.5c3.6-2,9.4-6.5,4.6-15.2c-2.2-4-5.7-7.4-9.4-9.3l4.2-4.6c4.3,2.2,8.6,6.5,11.6,11.9
		c7.2,13.1,0,21.2-8.7,26l-16.1,9c-3.7,2.1-7.3,4.3-10,6.4L-798.6,214.3z M-777.2,201c-4.5-8.6-11.4-17.3-19.7-12.7
		c-5.1,2.8-5.6,7.5-3.4,11.5c3.1,5.6,8.6,7.1,12.9,6.3c0.9-0.2,1.9-0.5,2.7-0.9L-777.2,201z"/>
	<path class="st1" d="M-777.2,244.4c2.4-2.3,5.9-5.9,8.9-9.1l40.3-44l6.5,5.9l-20.9,22.9l0.1,0.1c6-2,12.6-0.8,18.4,4.5
		c8.9,8.2,8.4,21.5-1.8,32.5c-11.9,13-25.9,12.1-34,4.7c-5.2-4.8-7.5-10.6-5.8-17.9l-0.2-0.2l-5.8,5.7L-777.2,244.4z M-757.1,236
		c-0.8,0.8-1.4,1.8-1.9,2.7c-2.9,5.7-2,12.4,2.7,16.7c6.8,6.3,16.1,4.4,23.7-4c6.7-7.3,8.7-16.9,1.7-23.3c-4.5-4.1-11.5-4.8-17.4-1
		c-0.8,0.6-1.9,1.3-2.9,2.4L-757.1,236z"/>
	<path class="st1" d="M-695.8,300.6l2-5.9l-0.3-0.1c-4.1,2.4-10.3,3.3-16.6,0.4c-9-4.2-10.6-12.7-7.6-19.1
		c5-10.8,17.3-12.3,34.3-4.3l0.4-0.9c1.7-3.7,3.8-10.8-5.3-15c-4.1-1.9-9-2.6-13.1-2l0.7-6.2c4.8-0.7,10.8,0.2,16.4,2.8
		c13.5,6.3,12.5,17.2,8.3,26.1l-7.8,16.7c-1.8,3.9-3.4,7.8-4.2,11.1L-695.8,300.6z M-686.4,277.2c-8.7-4.3-19.4-7.3-23.4,1.4
		c-2.4,5.3-0.1,9.4,4,11.3c5.8,2.7,11.1,0.7,14.2-2.5c0.7-0.7,1.3-1.5,1.7-2.4L-686.4,277.2z"/>
	<path class="st1" d="M-641.8,250.7l-2.9,13.9l12.4,2.6l-1.4,6.7l-12.4-2.6l-5.4,26.1c-1.3,6-0.3,9.7,4.6,10.7
		c2.3,0.5,4,0.5,5.2,0.5l-1,6.7c-1.8,0.3-4.6,0.3-8-0.4c-4-0.8-7-2.8-8.6-5.7c-1.9-3.1-1.9-7.6-0.7-13.3l5.5-26.3l-7.4-1.5l1.4-6.7
		l7.4,1.5l2.4-11.6L-641.8,250.7z"/>
	<path class="st1" d="M-580.3,302.9c0.2,5.1,0.5,9.6,0.9,13.4l-7.9,0.3l-0.8-8l-0.2,0c-2.2,4.1-7.1,9.5-15.8,9.8
		c-7.7,0.3-17-3.6-17.7-20.9l-1.2-28.8l8.9-0.4l1.1,27.3c0.4,9.4,3.5,15.6,11.5,15.3c5.9-0.2,9.9-4.6,11.4-8.6
		c0.5-1.3,0.7-3,0.6-4.6l-1.2-30.3l8.9-0.4L-580.3,302.9z"/>
	<path class="st1" d="M-554.4,287.4c4.1,11.4,12.9,13.7,21.3,10.9c6-2,9.3-4.3,12-6.7l3.5,5.6c-2.5,2.4-7,5.6-14.4,8.1
		c-14.2,4.8-25.9-1.8-30.7-15.9c-4.8-14.1-0.3-28,13.2-32.5c15.1-5.1,23.6,7,26.5,15.6c0.6,1.7,0.9,3.2,1,4.1L-554.4,287.4z
		 M-531.8,273c-1.7-5.4-6.9-13.1-16.3-9.9c-8.5,2.9-9.6,12.1-8.2,18.2L-531.8,273z"/>
	<path class="st1" d="M-500,280.1c3.1,0,8-0.9,11.8-3.3c5.4-3.5,6.2-7.9,4-11.3c-2.3-3.6-5.7-4.2-12.5-2.7
		c-9.1,2.1-15.2,0.2-18.4-4.7c-4.3-6.7-2.5-15.6,6.3-21.3c4.2-2.7,8.6-3.8,11.7-3.9l1.7,6.7c-2.3,0-6.1,0.6-9.9,3
		c-4.4,2.8-5.2,7-3.2,10.1c2.2,3.4,5.7,3.4,12.3,2c8.9-1.9,14.9-0.6,18.8,5.6c4.7,7.3,2.4,16-7.3,22.3c-4.5,2.9-9.4,4.5-13.3,4.6
		L-500,280.1z"/>
	<path class="st1" d="M-490.9,205.1l9.9,10.1l9.1-8.9l4.8,4.9l-9.1,8.9l18.7,19c4.3,4.4,8,5.6,11.5,2.2c1.7-1.6,2.7-3.1,3.2-4l5,4.5
		c-0.7,1.7-2.3,4-4.7,6.4c-2.9,2.9-6.2,4.3-9.5,4c-3.7-0.1-7.4-2.6-11.5-6.7l-18.9-19.2l-5.4,5.3l-4.8-4.9l5.4-5.3l-8.3-8.4
		L-490.9,205.1z"/>
	<path class="st1" d="M-440.8,209.1c10.4,6.3,18.7,2.4,23.4-5.1c3.4-5.4,4.4-9.2,5-12.8l6.3,2.1c-0.4,3.4-1.9,8.8-6,15.4
		c-8,12.7-21.2,15.1-33.8,7.2c-12.6-7.9-18-21.5-10.4-33.5c8.4-13.5,22.7-9.6,30.4-4.8c1.6,1,2.7,1.9,3.4,2.5L-440.8,209.1z
		 M-432.5,183.7c-4.8-3.1-13.6-5.8-18.9,2.7c-4.8,7.6,0.3,15.4,5.2,19.3L-432.5,183.7z"/>
	<path class="st1" d="M-451.8,140.9l13.5,4.4l3.9-12.1l6.5,2.1l-3.9,12.1l25.3,8.2c5.8,1.9,9.6,1.3,11.2-3.4c0.7-2.2,0.9-3.9,1-5.1
		l6.5,1.7c0.2,1.9-0.2,4.6-1.3,7.9c-1.3,3.9-3.6,6.7-6.5,8c-3.3,1.6-7.8,1.1-13.3-0.7l-25.6-8.3l-2.3,7.2l-6.5-2.1l2.3-7.2
		l-11.3-3.6L-451.8,140.9z"/>
	<path class="st1" d="M-404.4,81.5c18.2,1.7,24.9,14.9,23.8,26.7c-1.3,13.2-12,22.4-27.5,20.9c-16.4-1.6-25.1-13.1-23.8-26.6
		C-430.6,88.6-419.5,80.1-404.4,81.5z M-407.6,120.1c10.8,1,19.5-4.3,20.3-13c0.8-8.4-6.6-15.5-17.7-16.6
		c-8.3-0.8-19.3,2.3-20.3,12.8C-426.3,113.8-416.9,119.2-407.6,120.1z"/>
</g>
</svg>
